Coordinates
version=1
nRows=12
nColumns=23
inDegrees=yes

Units are S.I. units (second, meters, Newtons, ...)
If the header above contains a line with 'inDegrees', this indicates whether rotational values are in degrees (yes) or radians (no).

endheader
time	pelvis_tilt	pelvis_list	pelvis_rotation	pelvis_tx	pelvis_ty	pelvis_tz	hip_flexion_r	hip_adduction_r	hip_rotation_r	knee_angle_r	knee_angle_r_beta	ankle_angle_r	subtalar_angle_r	mtp_angle_r	hip_flexion_l	hip_adduction_l	hip_rotation_l	knee_angle_l	knee_angle_l_beta	ankle_angle_l	subtalar_angle_l	mtp_angle_l
     15.00000000	     -1.08481877	      1.66275986	     -0.81807722	      2.09337348	      0.97916014	      1.02526438	    -21.44079792	      1.00599878	     -7.66977573	     17.26582467	      0.30134549	     -1.45056387	      4.61739636	      0.00000000	     42.68206869	     -1.40382139	     -5.19404222	     88.55339463	      1.54554830	      2.87351717	    -16.34610022	      0.00000000
     15.00666667	     -1.85737105	      2.62266975	     -0.08779347	      2.09592910	      0.98175853	      1.02453085	    -22.68660099	      0.24237258	     -9.23041005	     15.85223453	      0.27667369	     -5.74665075	      4.77039691	      0.00000000	     43.85447170	      0.04336156	     -5.49314223	     84.66167338	      1.47762495	      2.78109402	    -16.12647557	      0.00000000
     15.01333333	     -2.83290516	      3.39542943	      0.66646609	      2.09825376	      0.98393651	      1.02366907	    -23.34176829	     -0.41692612	    -11.13003251	     15.13703653	      0.26419113	     -9.75220987	      5.00965847	      0.00000000	     45.10335005	      1.31459618	     -5.74497227	     80.61012058	      1.40691201	      2.75920932	    -15.63413674	      0.00000000
     15.02000000	     -3.67510612	      3.98450205	      1.31868633	      2.10032529	      0.98621248	      1.02285362	    -23.88170199	     -0.94353504	    -12.82984564	     14.84855722	      0.25915621	    -13.51561567	      5.12829925	      0.00000000	     45.99355057	      2.34307813	     -6.01129840	     76.30063047	      1.33169722	      2.42723284	    -15.55716998	      0.00000000
     15.02666667	     -4.76889023	      4.29497819	      1.80692813	      2.10198074	      0.98804643	      1.02223033	    -23.69429241	     -1.36152677	    -14.30085934	     15.38471649	      0.26851396	    -16.81517653	      4.98980393	      0.00000000	     47.01935592	      2.91274842	     -6.40837214	     71.87434485	      1.25444397	      2.46870712	    -14.89917867	      0.00000000
     15.03333333	     -5.57696258	      4.61548976	      2.47415924	      2.10352524	      0.98997085	      1.02114963	    -23.65797191	     -1.78266489	    -15.95658022	     16.30907195	      0.28464700	    -19.44051063	      4.72820474	      0.00000000	     47.51203341	      3.71591521	     -6.67997503	     67.15805767	      1.17212923	      2.29392583	    -14.27821252	      0.00000000
     15.04000000	     -6.33008183	      4.79216074	      3.00646684	      2.10472413	      0.99171368	      1.02010710	    -23.37610923	     -2.18235670	    -17.24356949	     17.81239447	      0.31088493	    -21.44509397	      4.38150500	      0.00000000	     47.77236979	      4.26724519	     -7.08682296	     62.27123668	      1.08683811	      2.17768714	    -13.60711865	      0.00000000
     15.04666667	     -7.02059037	      4.92673578	      3.49026263	      2.10565701	      0.99319756	      1.01897123	    -22.85986101	     -2.69057156	    -18.47955739	     19.98292864	      0.34876790	    -22.55024348	      4.40898590	      0.00000000	     47.74633345	      4.77919203	     -7.57170549	     57.13603204	      0.99721188	      1.88656686	    -13.14938824	      0.00000000
     15.05333333	     -7.57284106	      4.93681475	      3.95830597	      2.10645202	      0.99451801	      1.01771468	    -22.40761135	     -2.90935179	    -18.75361316	     22.21198409	      0.38767226	    -23.38141655	      3.35112257	      0.00000000	     47.44002483	      5.14159820	     -8.19250394	     51.98279280	      0.90727089	      2.18891446	    -11.78130545	      0.00000000
     15.06000000	     -7.89975994	      4.93330475	      4.23364462	      2.10695617	      0.99566576	      1.01662449	    -21.90547130	     -3.21857891	    -18.71207920	     24.98259027	      0.43602846	    -23.57975066	      2.39201685	      0.00000000	     46.73582204	      5.33218286	     -9.14465488	     46.76025034	      0.81612033	      2.47470814	    -10.09359020	      0.00000000
     15.06666667	     -8.07073838	      4.90701801	      4.46423956	      2.10740399	      0.99655941	      1.01544361	    -21.41160384	     -3.46523989	    -18.35159499	     28.01435740	      0.48894277	    -23.32950446	      1.52443900	      0.00000000	     45.74226457	      5.50383857	    -10.27879982	     41.58287884	      0.72575815	      3.02214840	     -7.86038625	      0.00000000
     15.07333333	     -8.10184830	      4.82967920	      4.73625383	      2.10762618	      0.99707892	      1.01415284	    -20.91305789	     -3.57269800	    -17.79885947	     31.26596742	      0.54569408	    -22.93211712	      0.22636945	      0.00000000	     44.53807795	      5.80051383	    -11.22737506	     36.52381615	      0.63746085	      3.57527893	     -5.44423140	      0.00000000
